<svg width="22" height="20" viewBox="0 0 22 20" fill="none" xmlns="http://www.w3.org/2000/svg">
<g clip-path="url(#clip0_249_260)">
<path d="M3.93762 19.9995C3.00707 19.9995 2.18068 19.6501 1.45846 18.9511C0.694566 18.2119 0.312622 17.3147 0.312622 16.2596C0.312622 15.2045 0.694566 14.3073 1.45846 13.5681L13.4376 1.26968C14.0487 0.664837 14.7536 0.275052 15.5522 0.100321C16.3508 -0.0744106 17.1598 -0.0273676 17.9793 0.24145C18.7987 0.510267 19.5557 0.973976 20.2501 1.63258C20.4723 1.86107 20.6772 2.11309 20.8647 2.38863C21.0522 2.66416 21.205 2.95314 21.323 3.25556C21.4411 3.55798 21.5314 3.8772 21.5939 4.21322C21.6564 4.54925 21.6876 4.88527 21.6876 5.22129C21.6598 6.64602 21.1598 7.83554 20.1876 8.78984L11.1251 18.1044C11.0001 18.2388 10.8473 18.3093 10.6668 18.316C10.4862 18.3228 10.33 18.2656 10.198 18.1447C10.0661 18.0237 9.99665 17.8725 9.98971 17.691C9.98276 17.5096 10.0418 17.3517 10.1668 17.2173L19.2293 7.90274C19.9654 7.17693 20.3404 6.2764 20.3543 5.20113C20.3682 4.12586 20.014 3.24548 19.2918 2.56C18.8473 2.11645 18.3543 1.78043 17.8126 1.55193C17.271 1.32344 16.6876 1.24951 16.0626 1.33016C15.4376 1.4108 14.8821 1.68634 14.396 2.15677L2.41679 14.4552C1.9029 14.9525 1.64596 15.5506 1.64596 16.2495C1.64596 16.9484 1.9029 17.5466 2.41679 18.0439C2.6529 18.2724 2.90984 18.4437 3.18762 18.558C3.4654 18.6722 3.75707 18.7159 4.06262 18.689C4.67373 18.6621 5.24318 18.3866 5.77096 17.8624L15.2918 8.06403C15.3612 7.99683 15.4272 7.92626 15.4897 7.85234C15.5522 7.77841 15.6182 7.69105 15.6876 7.59024C15.7571 7.48943 15.8126 7.38191 15.8543 7.26766C15.896 7.15341 15.9237 7.03916 15.9376 6.92492C15.9515 6.81067 15.9307 6.69306 15.8751 6.57209C15.8196 6.45113 15.7362 6.33688 15.6251 6.22935C15.3612 5.96054 15.1043 5.83957 14.8543 5.86645C14.5904 5.89333 14.2918 6.06134 13.9585 6.37048L6.79179 13.7495C6.70846 13.8302 6.61123 13.8873 6.50012 13.9209C6.38901 13.9545 6.27443 13.9578 6.15637 13.931C6.03832 13.9041 5.93762 13.8503 5.85429 13.7697C5.7154 13.6487 5.64596 13.5009 5.64596 13.3261C5.64596 13.1514 5.70846 12.9968 5.83346 12.8624L13.0001 5.46322C13.5696 4.92559 14.146 4.62989 14.7293 4.57613C15.396 4.52236 16.0071 4.7643 16.5626 5.30193C17.0904 5.79925 17.323 6.38392 17.2605 7.05597C17.198 7.72801 16.8612 8.35973 16.2501 8.95113L6.72929 18.7697C5.95151 19.5224 5.08346 19.9256 4.12512 19.9794C4.09734 19.9794 4.06609 19.9827 4.03137 19.9894C3.99665 19.9962 3.9654 19.9995 3.93762 19.9995Z" fill="#CDCDCD"/>
</g>
<defs>
<clipPath id="clip0_249_260">
<rect width="22" height="20" fill="white"/>
</clipPath>
</defs>
</svg>
